<?xml version="1.0" encoding="UTF-8" standalone="no"?>
<!-- Uploaded to: SVG Repo, www.svgrepo.com, Generator: SVG Repo Mixer Tools -->

<svg
   fill="#000000"
   width="800px"
   height="800px"
   viewBox="0 0 36 36"
   version="1.1"
   preserveAspectRatio="xMidYMid meet"
   id="svg1"
   sodipodi:docname="click.svg"
   inkscape:version="1.3 (0e150ed6c4, 2023-07-21)"
   xmlns:inkscape="http://www.inkscape.org/namespaces/inkscape"
   xmlns:sodipodi="http://sodipodi.sourceforge.net/DTD/sodipodi-0.dtd"
   xmlns="http://www.w3.org/2000/svg"
   xmlns:svg="http://www.w3.org/2000/svg">
  <defs
     id="defs1" />
  <sodipodi:namedview
     id="namedview1"
     pagecolor="#ffffff"
     bordercolor="#000000"
     borderopacity="0.25"
     inkscape:showpageshadow="2"
     inkscape:pageopacity="0.0"
     inkscape:pagecheckerboard="0"
     inkscape:deskcolor="#d1d1d1"
     inkscape:zoom="0.97125"
     inkscape:cx="399.4852"
     inkscape:cy="400"
     inkscape:window-width="1920"
     inkscape:window-height="991"
     inkscape:window-x="-9"
     inkscape:window-y="-9"
     inkscape:window-maximized="1"
     inkscape:current-layer="svg1" />
  <title
     id="title1">cursor-hand-click-line</title>
  <path
     class="clr-i-outline clr-i-outline-path-1"
     d="M30.4,17.6c-1.8-1.9-4.2-3.2-6.7-3.7c-1.1-0.3-2.2-0.5-3.3-0.6c2.8-3.3,2.3-8.3-1-11.1s-8.3-2.3-11.1,1s-2.3,8.3,1,11.1                     c0.6,0.5,1.2,0.9,1.8,1.1v2.2l-1.6-1.5c-1.4-1.4-3.7-1.4-5.2,0c-1.4,1.4-1.5,3.6-0.1,5l4.6,5.4c0.2,1.4,0.7,2.7,1.4,3.9                     c0.5,0.9,1.2,1.8,1.9,2.5v1.9c0,0.6,0.4,1,1,1h13.6c0.5,0,1-0.5,1-1v-2.6c1.9-2.3,2.9-5.2,2.9-8.1v-5.8                     C30.7,17.9,30.6,17.7,30.4,17.6z M8.4,8.2c0-3.3,2.7-5.9,6-5.8c3.3,0,5.9,2.7,5.8,6c0,1.8-0.8,3.4-2.2,4.5V7.9                     c-0.1-1.8-1.6-3.2-3.4-3.2c-1.8-0.1-3.4,1.4-3.4,3.2v5.2C9.5,12.1,8.5,10.2,8.4,8.2L8.4,8.2z M28.7,24c0.1,2.6-0.8,5.1-2.5,7.1                     c-0.2,0.2-0.4,0.4-0.4,0.7v2.1H14.2v-1.4c0-0.3-0.2-0.6-0.4-0.8c-0.7-0.6-1.3-1.3-1.8-2.2c-0.6-1-1-2.2-1.2-3.4                     c0-0.2-0.1-0.4-0.2-0.6l-4.8-5.7c-0.3-0.3-0.5-0.7-0.5-1.2c0-0.4,0.2-0.9,0.5-1.2c0.7-0.6,1.7-0.6,2.4,0l2.9,2.9v3l1.9-1V7.9                     c0.1-0.7,0.7-1.3,1.5-1.2c0.7,0,1.4,0.5,1.4,1.2v11.5l2,0.4v-4.6c0.1-0.1,0.2-0.1,0.3-0.2c0.7,0,1.4,0.1,2.1,0.2v5.1l1.6,0.3v-5.2                     l1.2,0.3c0.5,0.1,1,0.3,1.5,0.5v5l1.6,0.3v-4.6c0.9,0.4,1.7,1,2.4,1.7L28.7,24z"
     id="path1"
     style="fill:#ffffff;fill-opacity:1" />
  <rect
     x="0"
     y="0"
     width="36"
     height="36"
     fill-opacity="0"
     id="rect1" />
</svg>
