<?xml version="1.0" encoding="UTF-8" standalone="no"?>
<!-- Created with Inkscape (http://www.inkscape.org/) -->

<svg
   width="179.18588mm"
   height="181.05676mm"
   viewBox="0 0 179.18588 181.05676"
   version="1.1"
   id="svg1"
   xml:space="preserve"
   inkscape:version="1.3 (0e150ed6c4, 2023-07-21)"
   sodipodi:docname="drzewo.svg"
   xmlns:inkscape="http://www.inkscape.org/namespaces/inkscape"
   xmlns:sodipodi="http://sodipodi.sourceforge.net/DTD/sodipodi-0.dtd"
   xmlns="http://www.w3.org/2000/svg"
   xmlns:svg="http://www.w3.org/2000/svg"><sodipodi:namedview
     id="namedview1"
     pagecolor="#ffffff"
     bordercolor="#000000"
     borderopacity="0.25"
     inkscape:showpageshadow="2"
     inkscape:pageopacity="0.0"
     inkscape:pagecheckerboard="0"
     inkscape:deskcolor="#d1d1d1"
     inkscape:document-units="mm"
     inkscape:zoom="0.69219275"
     inkscape:cx="257.15381"
     inkscape:cy="421.84782"
     inkscape:window-width="1195"
     inkscape:window-height="1020"
     inkscape:window-x="102"
     inkscape:window-y="0"
     inkscape:window-maximized="0"
     inkscape:current-layer="layer1" /><defs
     id="defs1"><inkscape:path-effect
       effect="spiro"
       id="path-effect11"
       is_visible="true"
       lpeversion="1" /></defs><g
     inkscape:label="Warstwa 1"
     inkscape:groupmode="layer"
     id="layer1"
     transform="translate(-9.6730698,-37.596678)"><g
       id="g1"
       transform="translate(-6.4390884,-0.59193472)"><ellipse
         style="fill:#ffffff;fill-opacity:1;stroke:#000000;stroke-width:2.2;stroke-linejoin:bevel;stroke-dasharray:none;stroke-opacity:1"
         id="path2-2"
         cx="105.7051"
         cy="128.717"
         rx="88.492943"
         ry="89.428383" /></g><path
       style="fill:#000000;stroke:#000000;stroke-width:0.499999;stroke-linejoin:bevel"
       d="m 86.194981,129.77027 c 0,0 2.866795,2.48455 3.249033,6.88031 0.382241,4.39575 1.528958,10.32046 0.57336,12.04054 -0.955598,1.72007 -1.146717,6.11583 0.764479,11.08494 1.911197,4.96911 -4.395753,18.72973 -4.395753,21.59652 0,2.8668 -13.378378,-0.95559 -18.347491,2.67568 -4.969111,3.63127 -13.378379,3.44015 -13.378379,3.44015 0,0 4.586873,3.44016 9.938224,0.57336 5.351351,-2.86679 13.5695,-5.54247 17.200774,-4.01351 3.631274,1.52896 -2.484557,3.05792 -4.777994,5.16023 -2.293435,2.10232 -5.351351,5.16023 -8.409265,4.96911 -3.057917,-0.19112 -8.982625,0.19112 -8.982625,0.19112 0,0 5.924708,2.8668 8.982625,2.10232 3.057914,-0.76448 9.938223,-6.30695 9.938223,-6.30695 0,0 2.102316,-2.86679 4.969113,-1.72008 2.866795,1.14672 1.337837,2.29344 1.337837,2.29344 l -7.071429,4.20463 14.142857,-5.16023 c 0,0 6.30695,-3.24903 9.7471,-3.24903 3.44016,0 1.14672,-77.5946 1.14672,-77.5946 0,0 1.52896,-6.68919 3.44016,-9.747102 1.91119,-3.057914 4.77799,-5.54247 5.16023,-8.600387 0.38224,-3.057914 0.38224,-8.027027 2.10231,-10.320461 1.72008,-2.293438 6.49807,-8.218146 6.49807,-8.218146 0,0 -3.86859,4.100409 -4.81458,4.438263 -0.946,0.337857 -3.58126,1.824419 -3.71641,4.121833 -0.13514,2.297414 -1.01356,9.189659 -2.0947,10.946505 -1.08113,1.756844 -3.51369,4.527257 -5.47325,5.47325 -1.95956,0.945994 -4.121832,3.446125 -4.121832,3.446125 0,0 -0.743281,-5.067827 -3.175839,-6.419247 -2.432555,-1.351421 -5.405681,-4.054261 -4.527256,-8.716661 0.878422,-4.6624 2.229842,-8.784233 3.581262,-9.392372 1.35142,-0.60814 9.932945,0.472998 10.946505,0 1.01357,-0.472996 3.78398,-1.013566 4.93268,-2.905554 1.14871,-1.891988 1.82442,-3.783975 1.82442,-3.783975 0,0 -1.68927,3.851547 -4.32454,4.189401 -2.63527,0.337855 -4.86512,0.405427 -7.29767,-0.06757 -2.43256,-0.472995 -1.62171,-1.283848 -1.62171,-1.283848 0,0 2.16228,-3.581265 3.24341,-5.811107 1.08114,-2.229845 5.33811,-7.365241 6.95982,-8.378806 1.6217,-1.013566 4.32454,-3.648835 4.32454,-3.648835 0,0 -5.27054,3.31098 -7.2301,5.135396 -1.95956,1.824419 -4.52726,4.865113 -4.52726,4.865113 l -2.36498,-6.419244 c 0,0 2.0947,7.838236 0.60814,9.662655 -1.486563,1.824416 -4.932687,4.797541 -7.162529,6.216533 -2.229845,1.41899 -3.986689,5.000255 -4.527259,7.230097 -0.540568,2.229845 -1.216277,5.743538 -1.216277,5.743538 0,0 -0.675711,-6.959814 -1.824418,-8.176093 -1.148707,-1.216279 -4.054261,-4.256974 -4.054261,-4.256974 0,0 -0.06757,-6.959814 1.95956,-8.243665 2.027129,-1.283848 2.770412,-4.6624 2.432555,-5.811107 -0.337854,-1.148707 -1.148707,-2.635269 -2.027129,-3.37855 -0.878424,-0.74328 -4.05426,-2.567699 -4.05426,-2.567699 0,0 5.675963,4.459687 4.527256,6.486819 -1.148707,2.027129 -2.70284,3.040695 -4.324543,6.148961 -1.621705,3.108267 -1.756847,5.202968 -1.756847,5.202968 0,0 -1.216279,-0.743281 -1.148707,-3.243408 0.06757,-2.500127 -1.959559,-3.851547 -1.959559,-3.851547 0,0 -5.540825,-1.756847 -7.2301,-2.229845 -1.689274,-0.472998 -5.270539,-4.459687 -5.270539,-4.459687 0,0 1.486564,4.6624 4.256973,5.338111 2.770413,0.675709 5.743538,0.608137 7.2301,2.500128 1.486561,1.891988 1.621705,1.486561 1.554133,3.175836 -0.06757,1.689277 -1.013566,2.770412 1.148707,4.324546 2.162273,1.554133 4.865113,2.567699 5.540822,4.392115 0.675712,1.824418 0.675712,3.581265 0.675712,3.581265 0,0 -7.500382,-3.378552 -9.527514,-3.851548 -2.027129,-0.472998 -7.297668,-1.689277 -8.176093,-3.446124 -0.878422,-1.756846 -1.756846,-6.216531 -2.500127,-7.162527 -0.743281,-0.945994 -4.324546,-2.364983 -4.324546,-2.364983 0,0 4.324546,1.283848 4.6624,4.932682 0.337857,3.648834 -0.675709,4.797541 0.810853,6.01382 1.486564,1.216279 6.284105,3.851548 8.919374,4.527259 2.635271,0.675709 9.730226,2.973123 10.608648,5.675964 0.878425,2.702843 0.54057,5.540824 2.432558,7.162527 1.891988,1.621705 7.027386,3.581265 7.500382,4.932685 0.472998,1.35142 0.135144,8.378807 1.418992,12.635777 1.283848,4.25698 4.527263,15.13591 3.783976,17.43332 -0.743281,2.29742 -2.364984,6.28411 -2.364984,6.28411 0,0 -0.675711,-14.4602 -2.094703,-17.70361 -1.41899,-3.24341 -3.716404,-7.36524 -6.351675,-8.78423 -2.635268,-1.41899 5.27054,4.72997 5.27054,11.4195 0,6.68953 -0.135142,11.68979 -0.135142,11.68979 0,0 -1.89199,-0.27029 -1.621705,-5.54083 0.270285,-5.27054 0.540568,-9.59508 -3.31098,-13.58177 -3.851547,-3.98669 -6.554388,-6.62196 -8.243662,-6.7571 -1.689278,-0.13514 -7.297672,-1.89199 -7.297672,-1.89199 0,0 -1.554133,-1.08114 -2.094701,-3.0407 -0.540567,-1.959554 -1.689274,-4.054254 -5.338108,-5.06782 -3.648837,-1.013566 -6.892245,-1.95956 -7.297672,-4.932686 -0.405426,-2.973122 0.472999,-5.743535 -0.337854,-6.959814 -0.810853,-1.216276 -1.95956,-3.108267 -1.824419,-5.608394 0.135144,-2.500127 -0.405423,-4.594828 -0.405423,-4.594828 0,0 -0.878425,7.567954 -0.337857,8.446376 0.54057,0.878424 2.70284,3.581265 2.162273,6.892245 -0.540568,3.31098 -0.405427,4.527259 0.945993,5.40568 1.351421,0.878422 8.919374,3.243408 9.459942,5.067827 0.54057,1.824414 0.608139,3.851544 0.608139,3.851544 0,0 -3.581262,0.67571 -6.148961,-0.33785 -2.567699,-1.01357 -9.189659,-1.48657 -12.095213,-1.01357 -2.905553,0.473 -7.36524,1.48656 -8.851802,0.13514 -1.486561,-1.35142 -4.865113,-2.702836 -4.865113,-2.702836 0,0 1.148707,3.175836 2.770412,3.716406 1.621706,0.54057 4.189402,1.08113 6.824673,0.87842 2.635269,-0.20271 11.892497,-0.94599 13.581774,0.27029 1.689275,1.21627 2.77041,1.6217 2.77041,1.6217 l -9.459941,-0.67571 c 0,0 -6.351675,0.27028 -7.97338,4.12183 -1.621703,3.85155 0.810852,6.21654 -0.337855,8.44638 -1.148707,2.22984 -13.919628,3.31098 -13.919628,3.31098 0,0 8.378806,1.01356 11.487073,-0.54057 3.108267,-1.55413 3.446121,-1.75685 3.446121,-1.75685 0,0 -0.202713,4.05426 -1.621705,6.68954 -1.41899,2.63526 -0.743281,5.94624 -0.743281,5.94624 0,0 3.040695,-8.98694 3.378552,-10.81136 0.337854,-1.82442 1.486561,-6.2841 0.945994,-8.10852 -0.540568,-1.82442 -0.472999,-3.17584 1.621702,-3.71641 2.094704,-0.54056 7.162528,-0.47299 11.014078,-0.33785 3.851547,0.13514 10.74379,-1.89199 10.74379,-1.89199 0,0 8.986946,2.50013 10.878933,4.86511 1.891988,2.36499 5.878679,6.21654 5.135396,10.87894 -0.743281,4.6624 -1.309481,8.07487 -1.309481,8.07487 z"
       id="path3" /><path
       style="fill:#000000;stroke:#000000;stroke-width:0.499999;stroke-linejoin:bevel"
       d="m 112.97705,132.70254 c 0,0 -2.86679,2.48456 -3.24903,6.88032 -0.38224,4.39574 -1.52896,10.32046 -0.57336,12.04053 0.9556,1.72007 1.14672,6.11583 -0.76448,11.08494 -1.9112,4.96911 4.39575,18.72973 4.39575,21.59653 0,2.8668 13.37838,-0.9556 18.3475,2.67567 4.96911,3.63127 13.37838,3.44015 13.37838,3.44015 0,0 -4.58687,3.44016 -9.93822,0.57336 -5.35136,-2.86679 -13.56951,-5.54247 -17.20078,-4.01351 -3.63128,1.52896 2.48455,3.05792 4.77799,5.16024 2.29344,2.10231 5.35135,5.16022 8.40927,4.96911 3.05792,-0.19113 8.98263,0.19111 8.98263,0.19111 0,0 -5.92471,2.8668 -8.98263,2.10233 -3.05792,-0.76448 -9.93823,-6.30695 -9.93823,-6.30695 0,0 -2.10231,-2.8668 -4.96911,-1.72009 -2.8668,1.14672 -1.33784,2.29345 -1.33784,2.29345 l 7.07143,4.20463 -14.14286,-5.16023 c 0,0 -6.30694,-3.24903 -9.747094,-3.24903 -3.44016,0 -1.14672,-77.59461 -1.14672,-77.59461 0,0 -1.52896,-6.6892 -3.44016,-9.74711 -1.91119,-3.057905 5.9975,-0.59628 5.92471,2.48457 -0.0945,4.00001 1.967444,4.27483 -2.67567,-0.76448 -1.94255,-2.10832 4.013524,0.38224 4.013524,0.38224 0,0 -3.585084,1.80697 -2.639094,2.14482 0.946,0.33786 3.772384,-5.24701 3.907534,-2.94959 0.13514,2.29741 -2.235484,-1.32193 -1.15434,0.43492 1.08113,1.75684 -6.997894,-4.837605 -5.038334,-3.891615 1.95956,0.945995 4.12184,3.446115 4.12184,3.446115 0,0 0.743284,-5.067815 3.175844,-6.419245 2.43255,-1.351416 5.40567,-4.054256 4.52724,-8.716656 -0.87842,-4.6624 -2.22983,-8.78424 -3.58125,-9.39237 -1.35142,-0.60815 -9.932954,0.47299 -10.946514,0 -1.01357,-0.473 -3.78398,-1.01357 -4.93268,-2.90556 -1.14871,-1.89199 -1.82442,-3.78397 -1.82442,-3.78397 0,0 1.68927,3.85154 4.32454,4.1894 2.63527,0.33785 4.86512,0.40542 7.29767,-0.0676 2.43256,-0.473 1.62171,-1.28385 1.62171,-1.28385 0,0 -2.16228,-3.58127 -3.24341,-5.81111 -1.08114,-2.22984 -5.33811,-7.36524 -6.95982,-8.3788 -1.6217,-1.01357 -4.32454,-3.64884 -4.32454,-3.64884 0,0 5.27054,3.31098 7.2301,5.1354 1.95956,1.82442 4.52726,4.86511 4.52726,4.86511 l 2.36498,-6.41924 c 0,0 -2.0947,7.83823 -0.60814,9.66265 1.48657,1.82442 4.932694,4.79754 7.162534,6.21653 2.22984,1.41899 3.98668,5.00026 4.52725,7.2301 0.54057,2.22985 1.21628,5.74354 1.21628,5.74354 0,0 0.67571,-6.95981 1.82442,-8.17609 1.14871,-1.21628 4.05426,-4.25698 4.05426,-4.25698 0,0 0.0676,-6.95981 -1.95956,-8.24366 -2.02713,-1.28385 -2.77041,-4.6624 -2.43256,-5.81111 0.33786,-1.14871 1.14871,-2.63527 2.02713,-3.37855 0.87843,-0.74328 4.05426,-2.5677 4.05426,-2.5677 0,0 -5.67596,4.45969 -4.52725,6.48682 1.1487,2.02713 2.70284,3.0407 4.32454,6.14896 1.62171,3.10827 1.75685,5.20297 1.75685,5.20297 0,0 1.21628,-0.74328 1.1487,-3.24341 -0.0676,-2.50013 1.95956,-3.85155 1.95956,-3.85155 0,0 5.54083,-1.75684 7.2301,-2.22984 1.68928,-0.473 5.27055,-4.45969 5.27055,-4.45969 0,0 -1.48657,4.6624 -4.25698,5.33811 -2.77041,0.67571 -5.74354,0.60814 -7.2301,2.50013 -1.48656,1.89199 -1.62171,1.48656 -1.55413,3.17584 0.0676,1.68927 1.01356,2.77041 -1.14871,4.32454 -2.16227,1.55414 -4.86511,2.5677 -5.54082,4.39212 -0.67571,1.82442 -0.67571,3.58126 -0.67571,3.58126 0,0 7.50038,-3.37855 9.52751,-3.85154 2.02713,-0.473 7.29767,-1.68928 8.17609,-3.44613 0.87843,-1.75684 1.75685,-6.21653 2.50013,-7.16253 0.74328,-0.94599 4.32455,-2.36498 4.32455,-2.36498 0,0 -4.32455,1.28385 -4.6624,4.93268 -0.33786,3.64884 0.67571,4.79754 -0.81085,6.01382 -1.48657,1.21628 -6.28411,3.85155 -8.91938,4.52726 -2.63527,0.67571 -9.73023,2.97313 -10.60865,5.67597 -0.87842,2.70284 -0.54057,5.54082 -2.43256,7.16252 -1.89199,1.621716 -7.02737,3.581276 -7.50037,4.932701 -0.473,1.35141 -0.13514,8.37881 -1.41899,12.63578 -1.28385,4.25698 -4.527274,15.13591 -3.783984,17.43332 0.743284,2.29742 2.364994,6.28411 2.364994,6.28411 0,0 -2.573324,9.23864 -1.15433,5.99523 1.41899,-3.24341 4.67199,-3.54284 7.30725,-4.96183 2.63527,-1.41899 -4.87853,8.75484 -7.56396,2.62799 -7.930784,-18.09416 4.72202,-7.03994 4.72202,-7.03994 0,0 1.89198,-0.27029 1.62169,-5.54083 -0.27028,-5.27054 -0.54057,-9.59508 3.31098,-13.58177 3.85155,-3.98669 6.55439,-6.62196 8.24366,-6.7571 1.68928,-0.13514 7.29768,-1.89199 7.29768,-1.89199 0,0 1.55413,-1.08115 2.0947,-3.04071 0.54056,-1.95955 1.68927,-4.054255 5.3381,-5.067815 3.64885,-1.01358 6.89225,-1.959566 7.29768,-4.932696 0.40543,-2.97312 -0.473,-5.74354 0.33785,-6.95981 0.81086,-1.21628 1.95956,-3.10827 1.82442,-5.6084 -0.13514,-2.50013 0.40543,-4.59483 0.40543,-4.59483 0,0 0.87842,7.56796 0.33785,8.44638 -0.54057,0.87842 -2.70284,3.58126 -2.16227,6.89224 0.54057,3.31098 0.40543,4.52726 -0.94599,5.40568 -1.35142,0.878436 -8.91938,3.243416 -9.45995,5.067841 -0.54057,1.82441 -0.60814,3.85155 -0.60814,3.85155 0,0 3.58127,0.67571 6.14897,-0.33786 2.5677,-1.01357 9.18966,-1.48657 12.09521,-1.01357 2.90555,0.473 7.36524,1.48657 8.8518,0.13514 1.48656,-1.35142 4.86512,-2.70283 4.86512,-2.70283 0,0 -1.14871,3.17583 -2.77042,3.71641 -1.6217,0.54057 -4.1894,1.08113 -6.82467,0.87842 -2.63527,-0.20271 -11.8925,-0.94599 -13.58177,0.27029 -1.68928,1.21627 -2.77041,1.6217 -2.77041,1.6217 l 9.45994,-0.67571 c 0,0 6.35167,0.27028 7.97338,4.12183 1.6217,3.85155 -0.81085,6.21654 0.33785,8.44638 1.14871,2.22984 13.91963,3.31098 13.91963,3.31098 0,0 -8.37881,1.01356 -11.48707,-0.54057 -3.10827,-1.55413 -3.44612,-1.75685 -3.44612,-1.75685 0,0 0.20271,4.05426 1.6217,6.68954 1.41899,2.63526 0.74328,5.94624 0.74328,5.94624 0,0 -3.04069,-8.98694 -3.37855,-10.81136 -0.33785,-1.82442 -1.48656,-6.2841 -0.94599,-8.10852 0.54056,-1.82442 0.473,-3.17584 -1.62171,-3.71641 -2.0947,-0.54056 -7.16252,-0.47299 -11.01407,-0.33785 -3.85155,0.13514 -10.7438,-1.89199 -10.7438,-1.89199 0,0 -8.98694,2.50013 -10.87893,4.86511 -1.89199,2.36499 -5.87868,6.21654 -5.1354,10.87894 0.74328,4.6624 1.30948,8.07487 1.30948,8.07486 z"
       id="path3-1"
       sodipodi:nodetypes="cssssscsssscscscccscssscsssscssssscsscsscsccssscscssscsscscscssssscssscsssssssscssscssscssssscsssscssscsssccsscscscsssscsssc" /><circle
       id="path10"
       style="fill:#000000;stroke:#000000;stroke-width:0.264583"
       cx="60.813911"
       cy="105.95135"
       r="0.017008742" /><path
       style="fill:#000000;stroke:#000000;stroke-width:1;stroke-linejoin:bevel;stroke-dasharray:none"
       d="m 60.678771,107.30277 c 0.521293,1.42599 0.796833,2.94146 0.810853,4.45969 0.0029,0.30892 -0.005,0.61789 0,0.92678 0.02006,1.23468 0.245905,2.46573 0.166526,3.69802 -0.01055,0.16379 -0.02649,0.32724 -0.04778,0.48998"
       id="path11"
       inkscape:path-effect="#path-effect11"
       inkscape:original-d="m 60.678771,107.30277 c 0.07007,1.51981 0.695322,2.95779 0.810853,4.45969 0.07185,0.93398 -0.103479,-0.005 0,0.92678 0.106198,0.9558 -0.01987,2.76605 0.166526,3.69802 0.134892,0.67447 -0.04778,-0.20591 -0.04778,0.48998"
       sodipodi:nodetypes="csssc" /><path
       style="fill:none;stroke:#000000;stroke-width:0.8;stroke-linejoin:bevel;stroke-dasharray:none"
       d="m 60.96718,115.00627 1.194499,-0.28668 -1.433397,0.76448 1.725873,-0.45851 -1.860519,0.91652"
       id="path1"
       sodipodi:nodetypes="ccccc" /><path
       style="fill:none;stroke:#000000;stroke-width:0.8;stroke-linejoin:bevel;stroke-dasharray:none"
       d="m 61.134876,114.39773 c 0,0 0.810809,1.7391 1.604811,3.04069 0.917149,1.50346 1.257349,3.19273 -0.2365,3.75019 -1.428351,0.53302 -2.192245,0.0784 -2.787304,-0.28717 -2.302842,-1.41472 1.976154,-5.82794 1.976454,-5.828"
       id="path2"
       sodipodi:nodetypes="csssc" /></g></svg>
