<?xml version="1.0" encoding="UTF-8" standalone="no"?>
<!-- Created with Inkscape (http://www.inkscape.org/) -->

<svg
   version="1.1"
   id="svg1"
   width="1760.2209"
   height="1206.632"
   viewBox="0 0 1760.2209 1206.632"
   sodipodi:docname="miecze.svg"
   inkscape:version="1.3 (0e150ed6c4, 2023-07-21)"
   xmlns:inkscape="http://www.inkscape.org/namespaces/inkscape"
   xmlns:sodipodi="http://sodipodi.sourceforge.net/DTD/sodipodi-0.dtd"
   xmlns:xlink="http://www.w3.org/1999/xlink"
   xmlns="http://www.w3.org/2000/svg"
   xmlns:svg="http://www.w3.org/2000/svg">
  <defs
     id="defs1">
    <color-profile
       name="Agfa-:-Swop-Standard"
       xlink:href="../../../../../../WINDOWS/system32/spool/drivers/color/RSWOP.icm"
       id="color-profile1" />
  </defs>
  <sodipodi:namedview
     id="namedview1"
     pagecolor="#ffffff"
     bordercolor="#ffffff"
     borderopacity="0.24705882"
     inkscape:showpageshadow="2"
     inkscape:pageopacity="0.0"
     inkscape:pagecheckerboard="0"
     inkscape:deskcolor="#d1d1d1"
     showgrid="false"
     inkscape:zoom="0.34020495"
     inkscape:cx="974.41264"
     inkscape:cy="354.19826"
     inkscape:window-width="1920"
     inkscape:window-height="991"
     inkscape:window-x="-9"
     inkscape:window-y="-9"
     inkscape:window-maximized="1"
     inkscape:current-layer="g1" />
  <g
     inkscape:groupmode="layer"
     inkscape:label="Image"
     id="g1"
     transform="translate(-75.066644,-37.034553)">
    <path
       style="display:inline;fill:#ffffff;fill-opacity:1;stroke:#ffffff;stroke-width:0.755906;stroke-linejoin:bevel;stroke-opacity:1"
       d="m 1248.2469,130.19762 195.2077,258.09171 17.6329,-8.86603 -196.7771,-259.21043 z"
       id="path1"
       sodipodi:nodetypes="ccccc" />
    <path
       style="display:inline;fill:#ffffff;stroke:#ffffff;stroke-width:0.755906;stroke-linejoin:bevel;fill-opacity:1;stroke-opacity:1"
       d="m 1340.6151,232.78897 287.3488,-138.21845 10.912,14.02969 -266.5641,163.67975 z"
       id="path2" />
    <ellipse
       style="fill:#ffffff;stroke:#ffffff;stroke-width:0.755906;stroke-linejoin:bevel;fill-opacity:1;stroke-opacity:1"
       id="path3"
       cx="1663.0767"
       cy="76.903496"
       rx="40.010605"
       ry="39.49099" />
    <path
       style="display:inline;fill:#ffffff;stroke:#ffffff;stroke-width:0.755906;stroke-linejoin:bevel;fill-opacity:1;stroke-opacity:1"
       d="M 1337.2776,234.43698 125.74761,917.12619 c 0,0 -17.66702,13.51008 -24.94167,21.30435 -7.274657,7.79428 -25.461295,27.53977 -25.461295,27.53977 0,0 26.500535,-4.67657 36.892895,-7.27466 10.39236,-2.59809 40.0106,-15.58854 40.0106,-15.58854 L 1368.4647,276.14782 Z"
       id="path4"
       sodipodi:nodetypes="ccscsccc" />
    <path
       style="display:inline;fill:#ffffff;stroke:#ffffff;stroke-width:0.755906;stroke-linejoin:bevel;fill-opacity:1;stroke-opacity:1"
       d="m 849.83019,939.48017 14.51331,-11.94133 10.65534,9.36936 c 0,0 -12.30876,11.94133 -22.41296,17.269 -10.10421,5.32767 -27.00578,14.14588 -38.39598,15.98301 -11.39019,1.83713 -34.91425,4.52928 -45.74448,3.67426 -6.98109,-0.55114 -7.60744,2.23066 -7.60744,2.23066 0,0 -9.57046,15.92088 -10.67244,15.94608 -0.72239,0.0165 -17.80226,-19.21147 -37.71112,-22.76416 -11.30399,-2.01717 -29.1131,-11.20507 -28.74611,-11.5892 l -11.68692,-12.27183 -440.54327,242.13348 24.21316,41.4191 -27.66454,14.3926 -61.95038,-111.6604 27.92435,-14.697 25.15767,44.9745 426.20747,-258.8518 c 0,0 -8.80103,-10.43605 -9.35217,-19.62169 l 4.96025,-21.67811 c 0,0 1.4697,-12.67618 0.91856,-17.08529 -0.55114,-4.4091 -3.30683,-15.43187 -3.30683,-15.43187 l 22.22925,-6.24624 c 0,0 10.47163,-26.82206 22.59667,-39.31453 12.12505,-12.49247 24.05914,-20.0247 30.68004,-24.06638 6.62089,-4.04168 27.00578,-12.49247 27.00578,-12.49247 l 6.61366,10.47163 c 0,0 -30.49632,12.30876 -36.74256,18.92242 -6.24623,6.61366 -19.28984,17.82014 -23.14781,24.61751 -3.85797,6.79737 -7.89965,16.90158 -9.36935,22.59667 -1.46971,5.6951 -0.91857,16.53416 -0.91857,16.53416 l -20.94326,3.85796 -0.30056,36.79095 c 3.72113,5.34348 19.18854,-13.75014 24.13973,-11.78893 19.33161,7.65743 47.66943,54.99267 43.14176,57.5834 -17.78076,10.17417 -18.65894,14.29843 -10.84949,15.32269 0,0 0.47373,0.30214 6.16883,3.05783 5.6951,2.75569 25.72968,18.87802 25.72968,18.87802 l 10.59771,-13.55893 c 0,0 8.63543,9.79442 25.35329,8.32472 16.71787,-1.4697 18.555,0.18371 33.43573,-4.40911 14.88074,-4.59282 35.824,-14.88074 35.824,-14.88074"
       id="path5"
       sodipodi:nodetypes="cccssscsscccccccccccsccssccssscccsscsccssc" />
    <path
       style="fill:#ffffff;stroke:#ffffff;stroke-width:0.755906;stroke-linejoin:bevel;fill-opacity:1;stroke-opacity:1"
       d="m 678.45133,872.63576 c 0,0 10.65535,4.77653 21.12698,-6.24624 10.47163,-11.02277 24.06637,-30.86375 24.06637,-30.86375 0,0 35.45657,3.85797 50.88845,-8.45079 15.43187,-12.30875 24.4338,-32.51716 24.4338,-32.51716 0,0 25.35236,2.57198 42.43765,-4.96025 17.08529,-7.53222 945.75342,-532.03224 945.75342,-532.03224 0,0 23.5153,-11.02276 30.1289,-12.49247 6.6137,-1.4697 17.6365,-4.04168 17.6365,-4.04168 0,0 -1.8372,6.61366 -6.2463,11.02277 -4.4091,4.40911 -23.1478,20.54809 -23.1478,20.54809 L 887.7002,824.87043 c 0,0 -11.75761,2.9394 -20.2084,20.57583 l -8.45079,17.63643 c 0,0 -29.39405,-4.04168 -45.19335,5.87881 -15.7993,9.92049 -25.71979,38.21226 -25.71979,38.21226 0,0 -39.68196,-3.49054 -50.33731,1.28599 -10.65534,4.77653 -33.80315,23.69895 -33.80315,23.69895 z"
       id="path6"
       sodipodi:nodetypes="cscscscscsccscscscc" />
  </g>
</svg>
